<?xml version="1.0" encoding="utf-8"?>
<!-- Generator: Adobe Illustrator 18.1.0, SVG Export Plug-In . SVG Version: 6.00 Build 0)  -->
<!DOCTYPE svg PUBLIC "-//W3C//DTD SVG 1.1//EN" "http://www.w3.org/Graphics/SVG/1.1/DTD/svg11.dtd">
<svg version="1.1" id="Layer_1" xmlns="http://www.w3.org/2000/svg" xmlns:xlink="http://www.w3.org/1999/xlink" x="0px" y="0px"
	 viewBox="0 0 403.9 209.2" enable-background="new 0 0 403.9 209.2" xml:space="preserve">
<g>
	<path fill="#E84758" d="M40.3,71.8h12.6v11h0.3c3.4-4.1,7.4-7.2,12-9.5c4.6-2.3,9.6-3.4,15.1-3.4c5.9,0,11.3,1,16.2,3
		c4.9,2,9,4.8,12.5,8.3c3.4,3.5,6.1,7.7,8.1,12.6s2.9,10.1,2.9,15.8c0,5.7-1,11-2.9,15.8c-1.9,4.8-4.6,9-8,12.6
		c-3.4,3.5-7.4,6.3-12,8.3c-4.6,2-9.6,3-14.8,3c-6.8,0-12.7-1.5-17.8-4.4c-5.1-3-8.8-6.6-11.2-10.9h-0.3v50.1H40.3V71.8z
		 M52.9,109.5c0,4,0.6,7.7,1.9,11c1.2,3.4,3,6.3,5.4,8.9c2.4,2.5,5.2,4.5,8.5,6c3.3,1.4,7,2.2,11,2.2c4.1,0,7.8-0.7,11-2.2
		c3.3-1.4,6.1-3.4,8.5-6c2.4-2.5,4.2-5.5,5.4-8.9c1.2-3.4,1.9-7.1,1.9-11c0-4-0.6-7.7-1.9-11c-1.2-3.4-3-6.3-5.4-8.9
		c-2.4-2.5-5.2-4.5-8.5-6c-3.3-1.4-7-2.2-11-2.2c-4.1,0-7.8,0.7-11,2.2c-3.3,1.5-6.1,3.4-8.5,6c-2.4,2.5-4.2,5.5-5.4,8.9
		C53.5,101.8,52.9,105.5,52.9,109.5z"/>
	<path fill="#E84758" d="M137.6,42.3c0-2.5,0.9-4.6,2.7-6.4c1.8-1.8,3.9-2.7,6.5-2.7c2.6,0,4.8,0.9,6.5,2.7c1.8,1.8,2.7,4,2.7,6.4
		c0,2.7-0.9,4.9-2.6,6.6c-1.7,1.7-3.9,2.6-6.6,2.6c-2.7,0-4.9-0.9-6.6-2.6C138.5,47.2,137.6,45,137.6,42.3z M140.5,71.8h12.6v75.4
		h-12.6V71.8z"/>
	<path fill="#E84758" d="M197.5,106.6l-27.1-34.8h16.4l20,27.1l18.8-27.1H241l-25.9,34.8l31.1,40.6h-16.6l-23.8-32.5l-23.5,32.5
		h-15.6L197.5,106.6z"/>
	<path fill="#E84758" d="M325.9,133.4c-4.5,5.8-9.4,9.9-14.8,12.2c-5.4,2.3-11.6,3.5-18.7,3.5c-5.9,0-11.2-1-15.9-3.1
		c-4.7-2.1-8.7-4.9-12-8.5c-3.3-3.5-5.8-7.7-7.6-12.6c-1.8-4.8-2.7-10-2.7-15.5c0-5.8,1-11.1,2.9-16c1.9-4.9,4.6-9.1,8.1-12.6
		c3.4-3.5,7.5-6.2,12.2-8.1c4.7-1.9,9.9-2.9,15.5-2.9c5.3,0,10.1,0.9,14.5,2.7c4.4,1.8,8.2,4.3,11.4,7.7c3.2,3.4,5.6,7.5,7.3,12.4
		c1.7,4.9,2.6,10.4,2.6,16.7v4h-60.9c0.2,3.2,1,6.3,2.3,9.3c1.3,3,3.1,5.5,5.2,7.7c2.1,2.2,4.7,3.9,7.6,5.2c2.9,1.3,6.1,1.9,9.5,1.9
		c5.5,0,10.1-1,13.9-2.9c3.8-1.9,7.1-4.8,10.1-8.5L325.9,133.4z M315.1,102.7c-0.2-6.4-2.3-11.6-6.3-15.5c-4-3.9-9.5-5.8-16.4-5.8
		c-7,0-12.6,1.9-16.9,5.8c-4.3,3.9-6.9,9-7.7,15.5H315.1z"/>
	<path fill="#E84758" d="M349.3,25.4h12.6v121.8h-12.6V25.4z"/>
</g>
</svg>
